PathFileType	4	(X/Y/Z)	4_coords_data.trc
DataRate	CameraRate	NumFrames	NumMarkers	Units	OrigDataRate	OrigDataStartFrame	OrigNumFrames
30.0	30.0	7	21	m	30.0	41	50
Frame#	Time	THUMB_TIP	THUMB_IP	THUMB_MCP	THUMB_CMC	INDEX_TIP	INDEX_DIP	INDEX_PIP	INDEX_MCP	MIDDLE_TIP	MIDDLE_DIP	MIDDLE_PIP	MIDDLE_MCP	RING_TIP	RING_DIP	RING_PIP	RING_MCP	PINKY_TIP	PINKY_DIP	PINKY_PIP	PINKY_MCP	WRIST
X1	Y1	Z1	X2	Y2	Z2	X3	Y3	Z3	X4	Y4	Z4	X5	Y5	Z5	X6	Y6	Z6	X7	Y7	Z7	X8	Y8	Z8	X9	Y9	Z9	X10	Y10	Z10	X11	Y11	Z11	X12	Y12	Z12	X13	Y13	Z13	X14	Y14	Z14	X15	Y15	Z15	X16	Y16	Z16	X17	Y17	Z17	X18	Y18	Z18	X19	Y19	Z19	X20	Y20	Z20	X21	Y21	Z21
39	1.3333333333333275	0.5361508272696867	-0.03889038479855844	-0.14570154153275489	0.5192561101619203	-0.03786179857716554	-0.13016093201337936	0.4921540059632724	-0.03909822983690581	-0.11490422248132198	0.48059658976192043	-0.03063086790516356	-0.07265946052595518	0.5826699559901661	0.022565691222967477	-0.15175952014595184	0.5655591079145648	0.024556509468775523	-0.14616885642454536	0.542256753348067	0.023847756156150424	-0.1367609994210049	0.5095090889508587	0.006727547151308633	-0.11559203595657519	0.6003739805595627	0.03229825115858598	-0.12601135197759883	0.5831389601730401	0.03463961559294437	-0.12096436427584356	0.5552910408129806	0.034979927764512864	-0.11237442103147305	0.5174399879638463	0.017539350865929615	-0.09627249578457642	0.5998949023089871	0.03192654003743278	-0.09632768971580946	0.5831639179103122	0.03706337057820985	-0.09200482804249194	0.5589935028340575	0.039715432188495714	-0.08662546160611573	0.5251395578145561	0.019733486565884584	-0.07717278527866261	0.5910392488454599	0.02207952317178985	-0.06536518622899912	0.5766375761017838	0.029742622576377165	-0.06018168068743046	0.5563128445228916	0.033573835680780206	-0.056570709710721756	0.5260505953059353	0.01395290618622358	-0.05688511247863676	0.4622830810018608	-0.023011742144276925	-0.05198982011943104
40	1.3666666666666607	0.5361688099947511	-0.040044286556464304	-0.1456025781483667	0.5193744800124794	-0.03872361371245292	-0.1299754765717574	0.49226753490976694	-0.039624555539939155	-0.11470387446123831	0.4806440702881587	-0.030821120383638823	-0.07254602110460934	0.5832184858061605	0.023218077133455806	-0.15208817428614346	0.5661206478022192	0.02440892610274925	-0.1462361819482032	0.5429327380657989	0.02296037902506798	-0.1366324125622086	0.5100589286757298	0.006037773603280061	-0.11550011084365719	0.6011267090082593	0.034717144633968355	-0.1257664010668153	0.5837734919761091	0.035504029645970436	-0.1206432506090423	0.5559503275124581	0.03431112520038737	-0.11204918008266562	0.5180089515170501	0.016839324186568305	-0.0961955975882074	0.6009529365135624	0.03381598388277862	-0.09581538441928283	0.5838388056586686	0.037535908165134635	-0.09154119579275832	0.559546705026562	0.03904555323356318	-0.08626911862650033	0.5255712302703226	0.01914722404813296	-0.07707975277697643	0.5922554406211419	0.023589593596850977	-0.06383896735736999	0.5771591567532788	0.030142005787226145	-0.05913066534195949	0.5566039731836263	0.03307739103307061	-0.056019401792151924	0.5262871155449029	0.013553810899208596	-0.056794909799879334	0.462283081001861	-0.023011742144276925	-0.05198982011943104
42	1.400000000000001	0.5360544451934836	-0.04098631392292296	-0.14563396425663788	0.5193798645643753	-0.03943515921227603	-0.12990017005730348	0.49230402421815433	-0.04005660657593979	-0.11455961359020789	0.48066705777305996	-0.030985071701593925	-0.07246236585381455	0.5837234361607008	0.023327601715367074	-0.15223296106852036	0.566649478093875	0.024002233801920903	-0.14623089246844034	0.5435429899615107	0.02209874702885628	-0.13651097594134637	0.5104934984665729	0.0054424834474899875	-0.11544118502083422	0.6016684249983013	0.036194963167380356	-0.12551899213198175	0.5843031532735297	0.035852542298345114	-0.1203877071200869	0.5565374210368128	0.033585593469314556	-0.11182414440556815	0.5184584838117439	0.016240522701191584	-0.09616237627875468	0.6017555486160903	0.0350532549647915	-0.09545853435521395	0.5844236392112571	0.037684047336004056	-0.09125331760904887	0.5600715022982615	0.03830566420478754	-0.08607963427517851	0.5259119808087805	0.018656417450478302	-0.07703778559263874	0.5931655476666677	0.024673946289324844	-0.06265587112442894	0.5775811010459152	0.03031833710452192	-0.058382011527971234	0.556884483646768	0.032589698381788046	-0.05567961163501506	0.5264881106926718	0.013204618837696969	-0.05675787565868917	0.4622830810018609	-0.023011742144276925	-0.051989820119430985
43	1.4333333333333345	0.5358654100120507	-0.041727620669115395	-0.14574667828199955	0.5193185252928062	-0.039996863023711526	-0.12989722769023104	0.4922934528277707	-0.04040081591702982	-0.11446018521702533	0.4806721473229325	-0.03112265930776359	-0.0724036629131406	0.5841754378656666	0.023161860277865154	-0.15227651391234726	0.5671225927023569	0.023470511470010558	-0.14618510961795245	0.5440630603935157	0.021288915579592227	-0.13641226755085523	0.5108014260244206	0.004957662932118079	-0.11542203267696693	0.6020699108323494	0.03721895715087675	-0.1252973197370298	0.584742669259253	0.03594257293477654	-0.12018483083235265	0.5570391674707886	0.03286208989465056	-0.11167388711875365	0.518786540532563	0.015762706278946714	-0.09616596871272831	0.6023904639904248	0.03592183990160913	-0.0951847642585309	0.5849260895550532	0.0376420383273357	-0.0910572295273297	0.5605451277153594	0.03757269467978652	-0.08598338776492365	0.5261591838472992	0.018280940692498415	-0.07703040354754803	0.5938933702978223	0.025449423359418466	-0.06169580692182175	0.577953754908113	0.030332838763598158	-0.057812391515460804	0.5571665676961765	0.03210434403389195	-0.05545301958776033	0.5266274148177481	0.012958222975595679	-0.056745165434423595	0.462283081001861	-0.023011742144276925	-0.05198982011943104
44	1.4666666666666677	0.5356355176442618	-0.04228207705347675	-0.14591177174385384	0.519213640087214	-0.04041938991837335	-0.12994767658822237	0.4922503635902643	-0.04066197343853817	-0.11439959394807725	0.48066437846104293	-0.031230827367988212	-0.07236736307245745	0.584552823940224	0.0228331925077927	-0.15226412802410072	0.5675135845400312	0.022904431357372745	-0.1461274150856272	0.5444727614582545	0.020579363097714687	-0.1363435323031018	0.5109976571173948	0.004580567458914664	-0.11543678646649508	0.6023493339143129	0.03787988010301524	-0.12513732151736612	0.5850828530870147	0.035869794730672866	-0.12005517663194248	0.5574342383805454	0.03220251127554752	-0.1115985409608864	0.5190052104277941	0.015400287365527787	-0.09620234002415462	0.6028622429331072	0.036518310370825646	-0.09501113194501376	0.5853246384472574	0.037508687441934585	-0.09095507694601285	0.5609331540662483	0.03691757373259086	-0.08596648463218098	0.5263240253558213	0.01800856628023295	-0.07705702443126111	0.5944459223700692	0.02598063702533171	-0.060966443382475255	0.5782584909921556	0.03026202830194391	-0.05741162213213302	0.5574153329441714	0.03167474367331746	-0.0553190120714106	0.5267162993030444	0.012796802309074096	-0.05675988484482064	0.4622830810018609	-0.023011742144276925	-0.05198982011943104
45	1.5000000000000009	0.5353983023507493	-0.04266334402493943	-0.14609965476298764	0.5190880093222147	-0.04071326615719739	-0.1300319375127657	0.49218909852272663	-0.04084478461490615	-0.11437143622141283	0.48064870549977234	-0.03130641675197787	-0.07235085950729325	0.584827062777679	0.022449746504236034	-0.15223757519463432	0.5677934751567402	0.022393915153783195	-0.1460850329867251	0.544753026681137	0.02001909047330419	-0.1363122250596212	0.5110962649863501	0.004308432200164636	-0.1154787495251608	0.6025135267360684	0.038250009459720125	-0.12507242534630375	0.5853067285550255	0.03572526594074288	-0.12001754982654622	0.5577007886946463	0.031671277897435623	-0.11159811900434424	0.5191252825114544	0.015147603622604255	-0.09626689491199575	0.6031642053455226	0.036929480602555076	-0.0949541792653259	0.5855928655889301	0.03738206302978375	-0.09094878436532461	0.5612022340634082	0.036414590916453604	-0.08601511732182182	0.5264165628600539	0.017827016662684048	-0.07711680308300412	0.5948169106974462	0.02632811619074915	-0.06047848826394142	0.578470672336734	0.030182930919448014	-0.05717078591001268	0.5575955581351157	0.03135666613151478	-0.05525663551849491	0.5267652731835349	0.01270246668061814	-0.05680512628388501	0.4622830810018609	-0.023011742144276925	-0.05198982011943104
46	1.533333333333334	0.5351871857660981	-0.04288494849628144	-0.14628029000133075	0.5189642207676982	-0.04088891450105914	-0.13013001895250292	0.49212382542747024	-0.04095386375765997	-0.11436902407355143	0.4806300131615452	-0.0313461906797583	-0.07235146943713983	0.5849658332349589	0.02211994377364257	-0.15223782395557306	0.5679324754571466	0.022029619694639235	-0.1460850551175787	0.5448859608039804	0.019657347793199054	-0.13632594033359158	0.511110761037617	0.004138384225087055	-0.11554051889177647	0.6025607941309932	0.03839117159866434	-0.1251341306454593	0.5853924841311383	0.03559812545516772	-0.12008952709421944	0.557817460592981	0.03133426840429532	-0.11167245219139266	0.519156548794157	0.014998914247795758	-0.09635455336468396	0.6032821420629215	0.037235977985067725	-0.09502989181295146	0.585701871305993	0.03735996202489611	-0.09104006624396344	0.5613207257190348	0.03613987869257762	-0.08611552407948309	0.5264461125518938	0.01772386779262558	-0.07720863163738356	0.5949897381400082	0.026550757475595987	-0.060244158964715244	0.5785620406432267	0.03017383468047974	-0.05708123839636542	0.5576725750083351	0.03120756248475076	-0.0552444881914228	0.5267843963908128	0.012657195053989434	-0.05688392128727854	0.462283081001861	-0.023011742144276925	-0.05198982011943093
